<svg t="1723181865437" class="icon" viewBox="0 0 1024 1024" version="1.1" xmlns="http://www.w3.org/2000/svg" p-id="1631" width="200" height="200"><path d="M914.4 658.2H441.7c-25.4 0-45.9-20.2-45.9-45 0-24.9 20.6-45 45.9-45h472.7c25.4 0 45.9 20.1 45.9 45 0.1 24.8-20.5 45-45.9 45z m0-209H441.7c-25.4 0-45.9-20.1-45.9-45s20.6-45 45.9-45h472.7c25.4 0 45.9 20.2 45.9 45 0.1 24.9-20.5 45-45.9 45z m0-208.9H110.1c-25.3 0-45.9-20.2-45.9-45s20.6-45 45.9-45h804.3c25.4 0 45.9 20.2 45.9 45s-20.5 45-45.9 45zM238.2 664.1L75 540.5c-14.4-10.9-14.4-32.3 0-43.2l163.2-123.5c18.3-13.8 44.8-1.1 44.8 21.6v247.1c0 22.6-26.5 35.4-44.8 21.6z m-128.1 113h804.3c25.4 0 45.9 20.2 45.9 45s-20.6 45-45.9 45H110.1c-25.3 0-45.9-20.2-45.9-45s20.6-45 45.9-45z" p-id="1632" fill="#707070"></path></svg>