<svg t="1723013665760" class="icon" viewBox="0 0 1026 1024" version="1.1" xmlns="http://www.w3.org/2000/svg" p-id="1086" width="200" height="200"><path d="M986.865262 945.157632h-40.664524V455.281766c0-21.648739-14.700664-30.717806-39.348047-39.421185l-235.064353-61.508749a39.494322 39.494322 0 0 0-39.421184 39.421184v551.311478H553.744199V45.564745C553.744199 17.772445 535.825479 0 514.249877 0L119.306659 135.304621c-23.404043 13.6036-39.348047 17.772445-39.348047 45.637883v764.14199H41.70763a39.421184 39.421184 0 1 0 0 78.842368h945.157632a39.348047 39.348047 0 1 0 0-78.76923z m-905.443897 6.728662c0-12.579673 0-6.509249 3.730019 0h-3.730019z m80.231983-578.006714V294.378973h118.775516v79.573745H161.726486z m118.775516 77.964717v79.646882H161.726486v-79.72002h118.775516v0.073138zM161.726486 609.309621h118.775516V688.956503H161.726486V609.309621zM476.730271 688.956503H359.198095V609.309621h117.532176V688.956503z m0-157.465324H359.198095v-79.72002h117.532176v79.646883z m0-157.611599H359.198095V294.378973h117.532176v79.573745z m82.352975 578.006714h-4.168845c4.168845-6.509249 4.168845-12.579673 4.168845 0z m307.178059-202.371831h-155.051782V669.501893h155.051782v80.01257z m1.243339-157.611599H712.452862V511.963431h155.051782v79.939433z" p-id="1087" fill="#ffffff"></path></svg>