<svg t="1723182943210" class="icon" viewBox="0 0 1024 1024" version="1.1" xmlns="http://www.w3.org/2000/svg" p-id="2276" width="200" height="200"><path d="M960 896m-32 0l-832 0q-32 0-32-32l0 0q0-32 32.00000001-32l831.99999998 0q32 0 32.00000001 32l0 0q0 32-32 32Z" p-id="2277" fill="#707070"></path><path d="M960 192m-32.00000001 0l-831.99999998 0q-32 0-32.00000001-32l0 0q0-32 32-32l832 0q32 0 32 32l0 0q0 32-32.00000001 32Z" p-id="2278" fill="#707070"></path><path d="M576.00000001 661.12m-32.00000001 0l-447.99999999 0q-32 0-32.00000001-32l0 0q0-32 32-32l448 0q32 0 32 32l0 0q0 32-32 32Z" p-id="2279" fill="#707070"></path><path d="M576 426.88m-32 0l-448 0q-32 0-32-32l0 0q0-32 32.00000001-32l447.99999999 0q32 0 32 32l0 0q0 32-32 32Z" p-id="2280" fill="#707070"></path><path d="M949.76 493.44l-216.31999999-136.32a21.12 21.12 0 0 0-32.64000001 18.56L700.8 648.32a21.12 21.12 0 0 0 32.64000001 18.56L949.76 530.56a22.4 22.4 0 0 0 0-37.12z" p-id="2281" fill="#707070"></path></svg>